<svg width="800" height="880" viewBox="0 0 800 880" fill="none" xmlns="http://www.w3.org/2000/svg">
<path d="M107.857 782.261H87.418L86.3926 697.7C86.028 699.614 85.4811 702.349 84.752 705.903C84.0684 709.412 83.4987 712.147 83.043 714.106L68.6191 782.261H49L70.3965 681.499H101.021L102.457 760.728L137.525 681.499H167.809L146.412 782.261H126.793L141.217 714.106C141.673 712.147 142.288 709.412 143.062 705.903C143.883 702.349 144.475 699.614 144.84 697.7L107.857 782.261Z" fill="black"/>
<path d="M203.219 736.938C206.956 736.483 209.667 735.913 211.354 735.229C214.361 734.045 216.139 732.199 216.686 729.692C217.324 726.639 216.708 724.543 214.84 723.403C212.971 722.218 209.986 721.626 205.885 721.626C201.282 721.626 197.773 722.765 195.357 725.044C193.671 726.73 192.281 729.009 191.188 731.88H172.389C174.212 725.363 177.174 720.008 181.275 715.815C187.838 709.253 197.385 705.972 209.918 705.972C218.076 705.972 224.98 707.59 230.631 710.825C236.282 714.061 238.15 720.168 236.236 729.146L228.922 763.325C228.421 765.695 227.874 768.566 227.281 771.938C226.871 774.491 226.871 776.222 227.281 777.134C227.737 778.045 228.535 778.797 229.674 779.39L229.127 782.261H207.936C207.662 780.757 207.548 779.344 207.594 778.022C207.639 776.701 207.776 775.197 208.004 773.511C204.677 776.427 201.054 778.911 197.135 780.962C192.395 783.377 187.382 784.585 182.096 784.585C175.351 784.585 170.178 782.671 166.578 778.843C163.023 774.969 161.998 769.5 163.502 762.437C165.462 753.276 170.406 746.646 178.336 742.544C182.665 740.311 188.704 738.716 196.451 737.759L203.219 736.938ZM203.561 749.243L199.049 750.063C194.765 750.793 191.62 751.681 189.615 752.729C186.243 754.507 184.169 757.264 183.395 761.001C182.665 764.328 183.053 766.743 184.557 768.247C186.106 769.705 188.202 770.435 190.846 770.435C195.038 770.435 199.163 769.204 203.219 766.743C207.275 764.282 210.077 759.793 211.627 753.276L213.131 746.03C211.764 746.805 210.396 747.443 209.029 747.944C207.662 748.4 205.839 748.833 203.561 749.243Z" fill="black"/>
<path d="M278.414 708.091L260.982 790.259C259.387 797.778 256.721 803.338 252.984 806.938C249.247 810.539 243.049 812.339 234.391 812.339C233.798 812.339 232.932 812.316 231.793 812.271C230.654 812.225 229.241 812.179 227.555 812.134L230.836 796.548C231.93 796.639 232.682 796.685 233.092 796.685C233.502 796.73 233.889 796.753 234.254 796.753C236.168 796.753 237.717 796.274 238.902 795.317C240.087 794.406 240.976 792.606 241.568 789.917L258.932 708.091H278.414ZM260.914 698.862L264.742 680.884H284.225L280.396 698.862H260.914Z" fill="black"/>
<path d="M297.35 707.749H317.105L301.314 782.261H281.559L297.35 707.749ZM303.092 680.884H322.848L319.02 698.862H299.264L303.092 680.884Z" fill="black"/>
<path d="M377.398 736.938C378.264 733.019 378.378 730.011 377.74 727.915C376.646 724.087 373.411 722.173 368.033 722.173C361.425 722.173 356.298 724.976 352.652 730.581C350.738 733.543 349.303 737.326 348.346 741.929L339.801 782.261H320.387L336.178 707.886H354.977L352.652 718.755C355.979 714.927 358.941 712.17 361.539 710.483C366.188 707.476 371.588 705.972 377.74 705.972C385.442 705.972 391.298 708 395.309 712.056C399.365 716.066 400.413 722.743 398.453 732.085L387.789 782.261H367.828L377.398 736.938Z" fill="black"/>
<path d="M507.008 780.894C502.405 781.805 497.529 782.261 492.379 782.261H446.715L468.111 681.499H517.057C529.361 681.681 537.337 685.259 540.982 692.231C543.17 696.515 543.648 701.642 542.418 707.612C541.096 713.765 538.476 718.709 534.557 722.446C532.415 724.543 529.475 726.457 525.738 728.188C530.478 730.057 533.714 733.019 535.445 737.075C537.223 741.131 537.496 746.053 536.266 751.841C534.99 757.811 532.346 763.166 528.336 767.905C525.738 771.05 522.776 773.693 519.449 775.835C515.712 778.296 511.565 779.982 507.008 780.894ZM501.266 737.896H476.178L470.504 764.761H495.25C499.671 764.761 503.225 764.168 505.914 762.983C510.882 760.796 514.026 756.603 515.348 750.405C516.441 745.164 515.029 741.564 511.109 739.604C508.922 738.511 505.641 737.941 501.266 737.896ZM515.826 718.687C518.925 717.046 520.93 714.106 521.842 709.868C522.799 705.174 521.637 702.075 518.355 700.571C515.393 699.523 511.474 698.999 506.598 698.999H484.449L479.732 721.216H504.479C508.899 721.216 512.682 720.373 515.826 718.687Z" fill="black"/>
<path d="M546.383 782.261L567.779 681.499H587.262L565.865 782.261H546.383Z" fill="black"/>
<path d="M660.885 717.183C665.488 725.067 666.65 734.386 664.371 745.142C662.047 756.079 656.897 765.444 648.922 773.237C640.992 780.985 630.624 784.858 617.818 784.858C605.012 784.858 596.285 780.985 591.637 773.237C587.034 765.444 585.895 756.079 588.219 745.142C590.497 734.386 595.624 725.067 603.6 717.183C611.575 709.299 621.965 705.356 634.771 705.356C647.577 705.356 656.282 709.299 660.885 717.183ZM631.148 721.831C625.452 721.831 620.644 723.859 616.725 727.915C612.805 731.925 610.048 737.668 608.453 745.142C606.858 752.616 607.154 758.381 609.342 762.437C611.575 766.493 615.54 768.521 621.236 768.521C626.933 768.521 631.741 766.493 635.66 762.437C639.579 758.381 642.337 752.616 643.932 745.142C645.527 737.668 645.208 731.925 642.975 727.915C640.787 723.859 636.845 721.831 631.148 721.831Z" fill="black"/>
<path d="M712.838 709.526C716.803 707.248 721.497 706.108 726.92 706.108C736.718 706.108 743.622 709.64 747.633 716.704C751.689 723.768 752.532 732.882 750.162 744.048C747.701 755.623 742.916 765.216 735.807 772.827C728.743 780.438 720.312 784.243 710.514 784.243C704.361 784.243 699.69 783.013 696.5 780.552C694.586 779.093 692.717 776.541 690.895 772.896L688.912 782.261H669.84L691.168 681.636H710.582L702.994 717.456C706.184 713.993 709.465 711.349 712.838 709.526ZM721.725 762.095C725.37 758.039 727.9 752.707 729.312 746.099C730.452 740.812 730.702 736.437 730.064 732.974C728.834 726.411 724.732 723.13 717.76 723.13C710.696 723.13 705.159 726.343 701.148 732.769C699.052 736.187 697.434 740.607 696.295 746.03C694.928 752.41 695.201 757.697 697.115 761.89C699.075 766.082 702.949 768.179 708.736 768.179C713.749 768.179 718.079 766.151 721.725 762.095Z" fill="black"/>
<path d="M440.496 395.586C446.254 395.564 450.876 383.624 450.82 368.918C450.764 354.212 446.051 342.307 440.294 342.329C434.536 342.351 429.914 354.291 429.97 368.997C430.026 383.704 434.739 395.608 440.496 395.586Z" fill="black"/>
<path fill-rule="evenodd" clip-rule="evenodd" d="M103 398.43C103.63 398.168 104.272 397.925 104.926 397.701C119.794 392.603 135.755 399.123 149.055 411.057C162.523 423.141 174.453 441.696 182.02 463.769C185.005 472.475 187.112 481.143 188.377 489.53C196.767 493.292 204.951 499.054 212.113 506.58C219.152 513.978 224.442 522.28 227.793 530.698C240.791 531.63 252.606 540.142 257.101 553.255C258.54 557.45 259.097 561.734 258.873 565.906C301.72 575.541 352.119 581.582 407.374 578.79C545.874 571.79 636.874 547.29 677.874 502.79C715.609 461.833 677.107 362.004 667.617 337.4C666.796 335.271 666.193 333.705 665.874 332.79C661.874 321.29 608.374 170.79 519.874 105.79C431.374 40.7896 315.374 69.7896 256.874 116.79C199.979 162.5 129.389 270.643 103 398.43ZM491.604 302.987C491.128 302.457 490.625 301.898 490.099 301.312L490.094 301.306L490.087 301.299L490.082 301.293C487.649 298.585 484.719 295.324 481.659 291.976C478.014 287.937 474.214 283.785 470.854 280.284C468.14 277.412 465.733 274.999 463.891 273.427C464.218 275.688 464.517 279.39 464.697 282.862C464.822 285.053 464.912 287.209 464.941 288.88C464.951 289.711 464.946 290.438 464.925 291C464.914 291.282 464.899 291.522 464.88 291.721C464.864 291.901 464.821 292.127 464.733 292.316C463.492 294.935 461.739 296.7 459.603 297.692C457.468 298.685 455.033 298.885 452.519 298.529C447.52 297.81 442.266 294.891 438.232 291.23C435.042 288.228 434.823 283.497 435.702 278.997C436.585 274.467 438.473 269.902 440.004 266.891C440.233 266.429 440.704 266.316 441.062 266.429C441.418 266.551 441.739 266.912 441.695 267.421C441.398 270.429 441.316 274.662 442.061 278.287C442.443 280.101 443.038 281.704 443.863 282.906C444.699 284.099 445.741 284.857 447.041 285.087C451.157 285.829 453.596 285.74 455.041 285.112C456.389 284.531 457.004 283.438 457.232 281.592C457.443 279.874 457.199 274.129 455.977 267.614C454.782 261.184 452.65 254.183 449.17 249.502C448.765 248.948 448.483 248.179 448.803 247.579C448.984 247.241 449.307 247.036 449.702 247.033C450.057 247.024 450.4 247.165 450.723 247.374C452.545 248.529 455.204 250.948 458.774 255.501C464.607 262.698 484.185 286.23 495.591 299.071C495.643 299.129 495.757 299.115 495.778 299.038C501.668 284.152 511.345 257.51 514.256 249.466C516.035 244.409 517.732 241.504 519.065 239.92C519.296 239.65 519.594 239.411 519.93 239.318C520.3 239.21 520.694 239.278 520.974 239.511C521.496 239.951 521.503 240.73 521.312 241.349C519.647 246.594 520.117 253.625 521.292 259.981C522.504 266.504 524.395 272.106 525.222 273.712C526.113 275.429 527.091 276.349 528.548 276.613C530.122 276.903 532.423 276.44 535.957 274.803C537.074 274.279 537.774 273.289 538.126 271.916C538.47 270.531 538.449 268.8 538.19 266.903C537.637 263.143 536.123 258.971 534.815 256.092C534.602 255.617 534.788 255.169 535.091 254.96C535.395 254.752 535.891 254.743 536.261 255.121C538.735 257.695 542.066 261.738 544.408 266.051C546.742 270.353 548.181 275.171 546.281 278.916C543.949 283.407 540.281 287.348 536.001 289.049C533.826 289.893 531.491 290.179 529.129 289.673C526.759 289.156 524.433 287.846 522.29 285.634C522.146 285.484 522.034 285.288 521.948 285.137L521.947 285.135L521.924 285.095C521.82 284.908 521.703 284.669 521.59 284.41C521.363 283.882 521.08 283.194 520.781 282.402C520.166 280.797 519.437 278.73 518.728 276.595C517.61 273.239 516.497 269.65 515.964 267.41C514.823 269.346 513.458 272.188 511.992 275.522C510.153 279.609 508.163 284.382 506.256 289.005C504.297 293.701 502.454 298.233 501.062 301.678C500.28 303.575 499.395 305.417 498.469 307.262C498.143 307.902 497.328 308.086 496.748 307.628C494.904 306.207 493.199 304.735 491.604 302.987ZM566.826 347.956C568.457 364.342 565.136 378.087 559.407 378.658C553.677 379.228 547.71 366.408 546.079 350.022C545.736 346.577 545.612 343.249 545.683 340.136C543.669 348.939 543.029 359.773 544.182 371.346C546.96 399.249 559.103 420.884 571.303 419.669C583.503 418.454 591.141 394.849 588.363 366.947C585.585 339.044 573.442 317.409 561.242 318.624C559.61 318.786 558.061 319.349 556.606 320.269C561.246 323.509 565.49 334.537 566.826 347.956ZM443.338 435.137C455.598 435.09 465.451 412.321 465.344 384.28C465.237 356.24 455.212 333.546 442.951 333.593C430.691 333.639 420.838 356.409 420.945 384.449C421.052 412.49 431.077 435.183 443.338 435.137ZM580.668 262.734C580.59 262.327 580.197 262.061 579.79 262.139C579.383 262.218 579.117 262.611 579.195 263.017C580.581 270.217 584.975 275.46 587.445 277.702C587.943 278.155 588.474 278.935 589.006 279.977C589.531 281.006 590.029 282.233 590.48 283.525C591.384 286.111 592.084 288.904 592.445 290.779C593.127 294.327 591.812 297.033 590.85 298.453C590.565 298.874 590.367 299.48 590.217 300.097C590.062 300.736 589.939 301.476 589.843 302.226C589.649 303.726 589.554 305.318 589.525 306.33C589.513 306.744 589.839 307.089 590.253 307.101C590.667 307.113 591.013 306.787 591.025 306.373C591.052 305.398 591.145 303.857 591.33 302.417C591.423 301.697 591.538 301.016 591.675 300.45C591.818 299.861 591.967 299.479 592.092 299.294C593.183 297.683 594.702 294.572 593.918 290.495C593.545 288.557 592.827 285.693 591.896 283.031C591.431 281.699 590.908 280.404 590.342 279.295C589.783 278.2 589.153 277.227 588.454 276.592C586.133 274.485 581.973 269.513 580.668 262.734ZM584.375 255.327C584.778 255.231 585.183 255.48 585.279 255.883C585.847 258.271 586.932 262.044 588.335 265.58C589.036 267.349 589.811 269.043 590.633 270.469C591.462 271.908 592.307 273.02 593.132 273.676C595.507 275.565 597.777 277.805 599.615 279.962C601.442 282.106 602.884 284.218 603.552 285.855C604.524 288.237 607.999 294.317 609.639 297.097C609.849 297.453 609.731 297.913 609.374 298.124C609.018 298.334 608.558 298.216 608.347 297.859C606.728 295.116 603.186 288.928 602.163 286.422C601.585 285.005 600.264 283.036 598.473 280.935C596.694 278.846 594.492 276.674 592.198 274.85C591.155 274.02 590.196 272.717 589.333 271.218C588.463 269.708 587.657 267.942 586.94 266.133C585.506 262.517 584.4 258.673 583.819 256.23C583.723 255.827 583.972 255.423 584.375 255.327ZM598.025 295.399C598.195 294.995 598.372 294.888 598.475 294.854C598.598 294.813 598.818 294.809 599.175 294.968C599.904 295.295 600.82 296.134 601.675 297.251C603.066 299.066 607.086 304.944 608.933 307.674C609.166 308.017 609.632 308.107 609.975 307.875C610.318 307.642 610.408 307.176 610.176 306.833C608.34 304.121 604.29 298.198 602.866 296.338C601.961 295.158 600.86 294.079 599.787 293.599C599.243 293.355 598.615 293.227 598.002 293.43C597.37 293.64 596.924 294.147 596.642 294.818C596.247 295.757 595.743 297.851 595.282 299.999C594.813 302.18 594.369 304.514 594.104 305.999C594.031 306.407 594.302 306.796 594.71 306.869C595.118 306.942 595.507 306.671 595.58 306.263C595.844 304.791 596.284 302.474 596.748 300.314C597.219 298.12 597.696 296.181 598.025 295.399ZM393.669 268.339C394.08 268.398 394.365 268.777 394.306 269.187C393.202 276.931 388.713 286.963 386.621 290.999C385.238 293.665 382.686 295.001 380.952 295.637C379.891 296.025 378.989 296.668 378.507 297.55L374.2 305.426C374.001 305.79 373.545 305.923 373.182 305.724C372.818 305.526 372.685 305.07 372.884 304.707L377.191 296.83C377.903 295.528 379.161 294.695 380.436 294.228C382.028 293.645 384.16 292.485 385.289 290.308C387.364 286.307 391.754 276.459 392.821 268.976C392.88 268.566 393.259 268.281 393.669 268.339ZM400.792 273.056C401.037 272.722 400.964 272.253 400.63 272.008C400.295 271.764 399.826 271.836 399.581 272.171C397.407 275.143 394.407 280.089 392.459 285.299C390.529 290.46 389.544 296.112 391.732 300.331C394.239 305.162 395.156 308.606 395.418 311.12C395.638 313.234 395.401 314.709 395.209 315.905C395.172 316.131 395.138 316.348 395.108 316.556C394.824 318.548 393.613 324.035 393.037 326.555C392.944 326.959 393.197 327.361 393.601 327.454C394.004 327.546 394.407 327.293 394.499 326.89C395.07 324.394 396.298 318.836 396.593 316.768C396.608 316.664 396.624 316.556 396.642 316.443C396.656 316.353 396.671 316.26 396.687 316.164C396.881 314.962 397.152 313.29 396.91 310.965C396.625 308.222 395.635 304.597 393.064 299.64C391.191 296.03 391.956 290.927 393.864 285.824C395.753 280.771 398.678 275.945 400.792 273.056ZM381.389 301.767C381.072 301.836 380.732 302.041 380.413 302.501L375.521 309.571C375.285 309.912 374.818 309.997 374.477 309.761C374.136 309.525 374.051 309.058 374.287 308.717L379.18 301.647C379.677 300.929 380.322 300.465 381.069 300.301C381.808 300.14 382.555 300.292 383.236 300.632C384.578 301.303 385.79 302.763 386.56 304.591C386.905 305.409 387.43 306.384 388.035 307.475C388.144 307.67 388.255 307.869 388.367 308.071C388.875 308.983 389.417 309.953 389.915 310.93C390.524 312.124 391.083 313.357 391.456 314.548C391.826 315.732 392.029 316.93 391.871 318.038L390.604 326.92C390.546 327.33 390.166 327.615 389.756 327.557C389.346 327.498 389.061 327.118 389.119 326.708L390.386 317.826C390.5 317.031 390.362 316.076 390.024 314.995C389.688 313.921 389.171 312.774 388.579 311.612C388.094 310.662 387.57 309.721 387.062 308.81C386.948 308.606 386.835 308.404 386.724 308.203C386.122 307.119 385.559 306.077 385.178 305.173C384.497 303.558 383.489 302.435 382.565 301.974C382.112 301.748 381.716 301.696 381.389 301.767Z" fill="black"/>
<path d="M176.557 465.752C179.826 475.288 181.99 484.751 183.113 493.787C191.769 497.103 200.447 502.839 207.978 510.753C215.59 518.752 220.921 527.812 223.782 536.712C235.887 535.892 247.515 543.214 251.638 555.239C256.563 569.605 248.91 585.245 234.543 590.171C222.792 594.2 210.19 589.814 203.295 580.222C188.704 582.647 170.177 575.475 155.819 560.387C155.335 559.878 154.86 559.365 154.395 558.848C131.531 561.413 103.961 534.598 90.4755 495.265C75.8774 452.687 83.3132 411.564 107.084 403.414C130.855 395.264 161.959 423.174 176.557 465.752Z" fill="black"/>
<path d="M610.377 573.837C601.141 572.085 593.867 565.903 590.336 557.909C631.358 545.445 662.381 528.646 682.457 506.855C693.998 494.33 698.86 477.308 700.017 459.459C701.176 441.566 698.658 422.184 694.786 404.155C692.861 395.192 690.577 386.473 688.205 378.35C708.538 387.508 720.987 422.265 716.758 462.003C714.28 485.287 706.565 505.695 696.213 519.542C692.735 528.42 686.651 537.301 678.261 544.894C665.843 556.133 651.117 562.066 638.352 562.135C632.4 571.006 621.536 575.955 610.377 573.837Z" fill="black"/>
</svg>
