<svg width="1200" height="1200" viewBox="0 0 1200 1200" fill="none" xmlns="http://www.w3.org/2000/svg">
<rect width="1200" height="1200" rx="600" fill="black"/>
<path d="M307.857 942.261H287.418L286.393 857.7C286.028 859.614 285.481 862.349 284.752 865.903C284.068 869.412 283.499 872.147 283.043 874.106L268.619 942.261H249L270.396 841.499H301.021L302.457 920.728L337.525 841.499H367.809L346.412 942.261H326.793L341.217 874.106C341.673 872.147 342.288 869.412 343.062 865.903C343.883 862.349 344.475 859.614 344.84 857.7L307.857 942.261Z" fill="white"/>
<path d="M403.219 896.938C406.956 896.483 409.667 895.913 411.354 895.229C414.361 894.045 416.139 892.199 416.686 889.692C417.324 886.639 416.708 884.543 414.84 883.403C412.971 882.218 409.986 881.626 405.885 881.626C401.282 881.626 397.773 882.765 395.357 885.044C393.671 886.73 392.281 889.009 391.188 891.88H372.389C374.212 885.363 377.174 880.008 381.275 875.815C387.838 869.253 397.385 865.972 409.918 865.972C418.076 865.972 424.98 867.59 430.631 870.825C436.282 874.061 438.15 880.168 436.236 889.146L428.922 923.325C428.421 925.695 427.874 928.566 427.281 931.938C426.871 934.491 426.871 936.222 427.281 937.134C427.737 938.045 428.535 938.797 429.674 939.39L429.127 942.261H407.936C407.662 940.757 407.548 939.344 407.594 938.022C407.639 936.701 407.776 935.197 408.004 933.511C404.677 936.427 401.054 938.911 397.135 940.962C392.395 943.377 387.382 944.585 382.096 944.585C375.351 944.585 370.178 942.671 366.578 938.843C363.023 934.969 361.998 929.5 363.502 922.437C365.462 913.276 370.406 906.646 378.336 902.544C382.665 900.311 388.704 898.716 396.451 897.759L403.219 896.938ZM403.561 909.243L399.049 910.063C394.765 910.793 391.62 911.681 389.615 912.729C386.243 914.507 384.169 917.264 383.395 921.001C382.665 924.328 383.053 926.743 384.557 928.247C386.106 929.705 388.202 930.435 390.846 930.435C395.038 930.435 399.163 929.204 403.219 926.743C407.275 924.282 410.077 919.793 411.627 913.276L413.131 906.03C411.764 906.805 410.396 907.443 409.029 907.944C407.662 908.4 405.839 908.833 403.561 909.243Z" fill="white"/>
<path d="M478.414 868.091L460.982 950.259C459.387 957.778 456.721 963.338 452.984 966.938C449.247 970.539 443.049 972.339 434.391 972.339C433.798 972.339 432.932 972.316 431.793 972.271C430.654 972.225 429.241 972.179 427.555 972.134L430.836 956.548C431.93 956.639 432.682 956.685 433.092 956.685C433.502 956.73 433.889 956.753 434.254 956.753C436.168 956.753 437.717 956.274 438.902 955.317C440.087 954.406 440.976 952.606 441.568 949.917L458.932 868.091H478.414ZM460.914 858.862L464.742 840.884H484.225L480.396 858.862H460.914Z" fill="white"/>
<path d="M497.35 867.749H517.105L501.314 942.261H481.559L497.35 867.749ZM503.092 840.884H522.848L519.02 858.862H499.264L503.092 840.884Z" fill="white"/>
<path d="M577.398 896.938C578.264 893.019 578.378 890.011 577.74 887.915C576.646 884.087 573.411 882.173 568.033 882.173C561.425 882.173 556.298 884.976 552.652 890.581C550.738 893.543 549.303 897.326 548.346 901.929L539.801 942.261H520.387L536.178 867.886H554.977L552.652 878.755C555.979 874.927 558.941 872.17 561.539 870.483C566.188 867.476 571.588 865.972 577.74 865.972C585.442 865.972 591.298 868 595.309 872.056C599.365 876.066 600.413 882.743 598.453 892.085L587.789 942.261H567.828L577.398 896.938Z" fill="white"/>
<path d="M707.008 940.894C702.405 941.805 697.529 942.261 692.379 942.261H646.715L668.111 841.499H717.057C729.361 841.681 737.337 845.259 740.982 852.231C743.17 856.515 743.648 861.642 742.418 867.612C741.096 873.765 738.476 878.709 734.557 882.446C732.415 884.543 729.475 886.457 725.738 888.188C730.478 890.057 733.714 893.019 735.445 897.075C737.223 901.131 737.496 906.053 736.266 911.841C734.99 917.811 732.346 923.166 728.336 927.905C725.738 931.05 722.776 933.693 719.449 935.835C715.712 938.296 711.565 939.982 707.008 940.894ZM701.266 897.896H676.178L670.504 924.761H695.25C699.671 924.761 703.225 924.168 705.914 922.983C710.882 920.796 714.026 916.603 715.348 910.405C716.441 905.164 715.029 901.564 711.109 899.604C708.922 898.511 705.641 897.941 701.266 897.896ZM715.826 878.687C718.925 877.046 720.93 874.106 721.842 869.868C722.799 865.174 721.637 862.075 718.355 860.571C715.393 859.523 711.474 858.999 706.598 858.999H684.449L679.732 881.216H704.479C708.899 881.216 712.682 880.373 715.826 878.687Z" fill="white"/>
<path d="M746.383 942.261L767.779 841.499H787.262L765.865 942.261H746.383Z" fill="white"/>
<path d="M860.885 877.183C865.488 885.067 866.65 894.386 864.371 905.142C862.047 916.079 856.897 925.444 848.922 933.237C840.992 940.985 830.624 944.858 817.818 944.858C805.012 944.858 796.285 940.985 791.637 933.237C787.034 925.444 785.895 916.079 788.219 905.142C790.497 894.386 795.624 885.067 803.6 877.183C811.575 869.299 821.965 865.356 834.771 865.356C847.577 865.356 856.282 869.299 860.885 877.183ZM831.148 881.831C825.452 881.831 820.644 883.859 816.725 887.915C812.805 891.925 810.048 897.668 808.453 905.142C806.858 912.616 807.154 918.381 809.342 922.437C811.575 926.493 815.54 928.521 821.236 928.521C826.933 928.521 831.741 926.493 835.66 922.437C839.579 918.381 842.337 912.616 843.932 905.142C845.527 897.668 845.208 891.925 842.975 887.915C840.787 883.859 836.845 881.831 831.148 881.831Z" fill="white"/>
<path d="M912.838 869.526C916.803 867.248 921.497 866.108 926.92 866.108C936.718 866.108 943.622 869.64 947.633 876.704C951.689 883.768 952.532 892.882 950.162 904.048C947.701 915.623 942.916 925.216 935.807 932.827C928.743 940.438 920.312 944.243 910.514 944.243C904.361 944.243 899.69 943.013 896.5 940.552C894.586 939.093 892.717 936.541 890.895 932.896L888.912 942.261H869.84L891.168 841.636H910.582L902.994 877.456C906.184 873.993 909.465 871.349 912.838 869.526ZM921.725 922.095C925.37 918.039 927.9 912.707 929.312 906.099C930.452 900.812 930.702 896.437 930.064 892.974C928.834 886.411 924.732 883.13 917.76 883.13C910.696 883.13 905.159 886.343 901.148 892.769C899.052 896.187 897.434 900.607 896.295 906.03C894.928 912.41 895.201 917.697 897.115 921.89C899.075 926.082 902.949 928.179 908.736 928.179C913.749 928.179 918.079 926.151 921.725 922.095Z" fill="white"/>
<path d="M640.496 555.586C646.254 555.564 650.876 543.624 650.82 528.918C650.764 514.212 646.051 502.307 640.294 502.329C634.536 502.351 629.914 514.291 629.97 528.997C630.026 543.704 634.739 555.608 640.496 555.586Z" fill="white"/>
<path fill-rule="evenodd" clip-rule="evenodd" d="M303 558.43C303.63 558.168 304.272 557.925 304.926 557.701C319.794 552.603 335.755 559.123 349.055 571.057C362.523 583.141 374.453 601.696 382.02 623.769C385.005 632.475 387.112 641.143 388.377 649.53C396.767 653.292 404.951 659.054 412.113 666.58C419.152 673.978 424.442 682.28 427.793 690.698C440.791 691.63 452.606 700.142 457.101 713.255C458.54 717.45 459.097 721.734 458.873 725.906C501.72 735.541 552.119 741.582 607.374 738.79C745.874 731.79 836.874 707.29 877.874 662.79C915.609 621.833 877.107 522.004 867.617 497.4C866.796 495.271 866.193 493.705 865.874 492.79C861.874 481.29 808.374 330.79 719.874 265.79C631.374 200.79 515.374 229.79 456.874 276.79C399.979 322.5 329.389 430.643 303 558.43ZM691.604 462.987C691.128 462.457 690.625 461.898 690.099 461.312L690.094 461.306L690.087 461.299L690.082 461.293C687.649 458.585 684.719 455.324 681.659 451.976C678.014 447.937 674.214 443.785 670.854 440.284C668.14 437.412 665.733 434.999 663.891 433.427C664.218 435.688 664.517 439.39 664.697 442.862C664.822 445.053 664.912 447.209 664.941 448.88C664.951 449.711 664.946 450.438 664.925 451C664.914 451.282 664.899 451.522 664.88 451.721C664.864 451.901 664.821 452.127 664.733 452.316C663.492 454.935 661.739 456.7 659.603 457.692C657.468 458.685 655.033 458.885 652.519 458.529C647.52 457.81 642.266 454.891 638.232 451.23C635.042 448.228 634.823 443.497 635.702 438.997C636.585 434.467 638.473 429.902 640.004 426.891C640.233 426.429 640.704 426.316 641.062 426.429C641.418 426.551 641.739 426.912 641.695 427.421C641.398 430.429 641.316 434.662 642.061 438.287C642.443 440.101 643.038 441.704 643.863 442.906C644.699 444.099 645.741 444.857 647.041 445.087C651.157 445.829 653.596 445.74 655.041 445.112C656.389 444.531 657.004 443.438 657.232 441.592C657.443 439.874 657.199 434.129 655.977 427.614C654.782 421.184 652.65 414.183 649.17 409.502C648.765 408.948 648.483 408.179 648.803 407.579C648.984 407.241 649.307 407.036 649.702 407.033C650.057 407.024 650.4 407.165 650.723 407.374C652.545 408.529 655.204 410.948 658.774 415.501C664.607 422.698 684.185 446.23 695.591 459.071C695.643 459.129 695.757 459.115 695.778 459.038C701.668 444.152 711.345 417.51 714.256 409.466C716.035 404.409 717.732 401.504 719.065 399.92C719.296 399.65 719.594 399.411 719.93 399.318C720.3 399.21 720.694 399.278 720.974 399.511C721.496 399.951 721.503 400.73 721.312 401.349C719.647 406.594 720.117 413.625 721.292 419.981C722.504 426.504 724.395 432.106 725.222 433.712C726.113 435.429 727.091 436.349 728.548 436.613C730.122 436.903 732.423 436.44 735.957 434.803C737.074 434.279 737.774 433.289 738.126 431.916C738.47 430.531 738.449 428.8 738.19 426.903C737.637 423.143 736.123 418.971 734.815 416.092C734.602 415.617 734.788 415.169 735.091 414.96C735.395 414.752 735.891 414.743 736.261 415.121C738.735 417.695 742.066 421.738 744.408 426.051C746.742 430.353 748.181 435.171 746.281 438.916C743.949 443.407 740.281 447.348 736.001 449.049C733.826 449.893 731.491 450.179 729.129 449.673C726.759 449.156 724.433 447.846 722.29 445.634C722.146 445.484 722.034 445.288 721.948 445.137L721.947 445.135L721.924 445.095C721.82 444.908 721.703 444.669 721.59 444.41C721.363 443.882 721.08 443.194 720.781 442.402C720.166 440.797 719.437 438.73 718.728 436.595C717.61 433.239 716.497 429.65 715.964 427.41C714.823 429.346 713.458 432.188 711.992 435.522C710.153 439.609 708.163 444.382 706.256 449.005C704.297 453.701 702.454 458.233 701.062 461.678C700.28 463.575 699.395 465.417 698.469 467.262C698.143 467.902 697.328 468.086 696.748 467.628C694.904 466.207 693.199 464.735 691.604 462.987ZM766.826 507.956C768.457 524.342 765.136 538.087 759.407 538.658C753.677 539.228 747.71 526.408 746.079 510.022C745.736 506.577 745.612 503.249 745.683 500.136C743.669 508.939 743.029 519.773 744.182 531.346C746.96 559.249 759.103 580.884 771.303 579.669C783.503 578.454 791.141 554.849 788.363 526.947C785.585 499.044 773.442 477.409 761.242 478.624C759.61 478.786 758.061 479.349 756.606 480.269C761.246 483.509 765.49 494.537 766.826 507.956ZM643.338 595.137C655.598 595.09 665.451 572.321 665.344 544.28C665.237 516.24 655.212 493.546 642.951 493.593C630.691 493.639 620.838 516.409 620.945 544.449C621.052 572.49 631.077 595.183 643.338 595.137ZM780.668 422.734C780.59 422.327 780.197 422.061 779.79 422.139C779.383 422.218 779.117 422.611 779.195 423.017C780.581 430.217 784.975 435.46 787.445 437.702C787.943 438.155 788.474 438.935 789.006 439.977C789.531 441.006 790.029 442.233 790.48 443.525C791.384 446.111 792.084 448.904 792.445 450.779C793.127 454.327 791.812 457.033 790.85 458.453C790.565 458.874 790.367 459.48 790.217 460.097C790.062 460.736 789.939 461.476 789.843 462.226C789.649 463.726 789.554 465.318 789.525 466.33C789.513 466.744 789.839 467.089 790.253 467.101C790.667 467.113 791.013 466.787 791.025 466.373C791.052 465.398 791.145 463.857 791.33 462.417C791.423 461.697 791.538 461.016 791.675 460.45C791.818 459.861 791.967 459.479 792.092 459.294C793.183 457.683 794.702 454.572 793.918 450.495C793.545 448.557 792.827 445.693 791.896 443.031C791.431 441.699 790.908 440.404 790.342 439.295C789.783 438.2 789.153 437.227 788.454 436.592C786.133 434.485 781.973 429.513 780.668 422.734ZM784.375 415.327C784.778 415.231 785.183 415.48 785.279 415.883C785.847 418.271 786.932 422.044 788.335 425.58C789.036 427.349 789.811 429.043 790.633 430.469C791.462 431.908 792.307 433.02 793.132 433.676C795.507 435.565 797.777 437.805 799.615 439.962C801.442 442.106 802.884 444.218 803.552 445.855C804.524 448.237 807.999 454.317 809.639 457.097C809.849 457.453 809.731 457.913 809.374 458.124C809.018 458.334 808.558 458.216 808.347 457.859C806.728 455.116 803.186 448.928 802.163 446.422C801.585 445.005 800.264 443.036 798.473 440.935C796.694 438.846 794.492 436.674 792.198 434.85C791.155 434.02 790.196 432.717 789.333 431.218C788.463 429.708 787.657 427.942 786.94 426.133C785.506 422.517 784.4 418.673 783.819 416.23C783.723 415.827 783.972 415.423 784.375 415.327ZM798.025 455.399C798.195 454.995 798.372 454.888 798.475 454.854C798.598 454.813 798.818 454.809 799.175 454.968C799.904 455.295 800.82 456.134 801.675 457.251C803.066 459.066 807.086 464.944 808.933 467.674C809.166 468.017 809.632 468.107 809.975 467.875C810.318 467.642 810.408 467.176 810.176 466.833C808.34 464.121 804.29 458.198 802.866 456.338C801.961 455.158 800.86 454.079 799.787 453.599C799.243 453.355 798.615 453.227 798.002 453.43C797.37 453.64 796.924 454.147 796.642 454.818C796.247 455.757 795.743 457.851 795.282 459.999C794.813 462.18 794.369 464.514 794.104 465.999C794.031 466.407 794.302 466.796 794.71 466.869C795.118 466.942 795.507 466.671 795.58 466.263C795.844 464.791 796.284 462.474 796.748 460.314C797.219 458.12 797.696 456.181 798.025 455.399ZM593.669 428.339C594.08 428.398 594.365 428.777 594.306 429.187C593.202 436.931 588.713 446.963 586.621 450.999C585.238 453.665 582.686 455.001 580.952 455.637C579.891 456.025 578.989 456.668 578.507 457.55L574.2 465.426C574.001 465.79 573.545 465.923 573.182 465.724C572.818 465.526 572.685 465.07 572.884 464.707L577.191 456.83C577.903 455.528 579.161 454.695 580.436 454.228C582.028 453.645 584.16 452.485 585.289 450.308C587.364 446.307 591.754 436.459 592.821 428.976C592.88 428.566 593.259 428.281 593.669 428.339ZM600.792 433.056C601.037 432.722 600.964 432.253 600.63 432.008C600.295 431.764 599.826 431.836 599.581 432.171C597.407 435.143 594.407 440.089 592.459 445.299C590.529 450.46 589.544 456.112 591.732 460.331C594.239 465.162 595.156 468.606 595.418 471.12C595.638 473.234 595.401 474.709 595.209 475.905C595.172 476.131 595.138 476.348 595.108 476.556C594.824 478.548 593.613 484.035 593.037 486.555C592.944 486.959 593.197 487.361 593.601 487.454C594.004 487.546 594.407 487.293 594.499 486.89C595.07 484.394 596.298 478.836 596.593 476.768C596.608 476.664 596.624 476.556 596.642 476.443C596.656 476.353 596.671 476.26 596.687 476.164C596.881 474.962 597.152 473.29 596.91 470.965C596.625 468.222 595.635 464.597 593.064 459.64C591.191 456.03 591.956 450.927 593.864 445.824C595.753 440.771 598.678 435.945 600.792 433.056ZM581.389 461.767C581.072 461.836 580.732 462.041 580.413 462.501L575.521 469.571C575.285 469.912 574.818 469.997 574.477 469.761C574.136 469.525 574.051 469.058 574.287 468.717L579.18 461.647C579.677 460.929 580.322 460.465 581.069 460.301C581.808 460.14 582.555 460.292 583.236 460.632C584.578 461.303 585.79 462.763 586.56 464.591C586.905 465.409 587.43 466.384 588.035 467.475C588.144 467.67 588.255 467.869 588.367 468.071C588.875 468.983 589.417 469.953 589.915 470.93C590.524 472.124 591.083 473.357 591.456 474.548C591.826 475.732 592.029 476.93 591.871 478.038L590.604 486.92C590.546 487.33 590.166 487.615 589.756 487.557C589.346 487.498 589.061 487.118 589.119 486.708L590.386 477.826C590.5 477.031 590.362 476.076 590.024 474.995C589.688 473.921 589.171 472.774 588.579 471.612C588.094 470.662 587.57 469.721 587.062 468.81C586.948 468.606 586.835 468.404 586.724 468.203C586.122 467.119 585.559 466.077 585.178 465.173C584.497 463.558 583.489 462.435 582.565 461.974C582.112 461.748 581.716 461.696 581.389 461.767Z" fill="white"/>
<path d="M376.557 625.752C379.826 635.288 381.99 644.751 383.113 653.787C391.769 657.103 400.447 662.839 407.978 670.753C415.59 678.752 420.921 687.812 423.782 696.712C435.887 695.892 447.515 703.214 451.638 715.239C456.563 729.605 448.91 745.245 434.543 750.171C422.792 754.2 410.19 749.814 403.295 740.222C388.704 742.647 370.177 735.475 355.819 720.387C355.335 719.878 354.86 719.365 354.395 718.848C331.531 721.413 303.961 694.598 290.476 655.265C275.877 612.687 283.313 571.564 307.084 563.414C330.855 555.264 361.959 583.174 376.557 625.752Z" fill="white"/>
<path d="M810.377 733.837C801.141 732.085 793.867 725.903 790.336 717.909C831.358 705.445 862.381 688.646 882.457 666.855C893.998 654.33 898.86 637.308 900.017 619.459C901.176 601.566 898.658 582.184 894.786 564.155C892.861 555.192 890.577 546.473 888.205 538.35C908.538 547.508 920.987 582.265 916.758 622.003C914.28 645.287 906.565 665.695 896.213 679.542C892.735 688.42 886.651 697.301 878.261 704.894C865.843 716.133 851.117 722.066 838.352 722.135C832.4 731.006 821.536 735.955 810.377 733.837Z" fill="white"/>
</svg>
