<svg width="800" height="720" viewBox="0 0 800 720" fill="none" xmlns="http://www.w3.org/2000/svg">
<path d="M440.496 425.586C446.254 425.564 450.876 413.624 450.82 398.918C450.764 384.212 446.051 372.307 440.294 372.329C434.536 372.351 429.914 384.291 429.97 398.997C430.026 413.704 434.739 425.608 440.496 425.586Z" fill="black"/>
<path fill-rule="evenodd" clip-rule="evenodd" d="M103 428.43C103.63 428.168 104.272 427.925 104.926 427.701C119.794 422.603 135.755 429.123 149.055 441.057C162.523 453.141 174.453 471.696 182.02 493.769C185.005 502.475 187.112 511.143 188.377 519.53C196.767 523.292 204.951 529.054 212.113 536.58C219.152 543.978 224.442 552.28 227.793 560.698C240.791 561.63 252.606 570.142 257.101 583.255C258.54 587.45 259.097 591.734 258.873 595.906C301.72 605.541 352.119 611.582 407.374 608.79C545.874 601.79 636.874 577.29 677.874 532.79C715.609 491.833 677.107 392.004 667.617 367.4C666.796 365.271 666.193 363.705 665.874 362.79C661.874 351.29 608.374 200.79 519.874 135.79C431.374 70.7896 315.374 99.7896 256.874 146.79C199.979 192.5 129.389 300.643 103 428.43ZM491.604 332.987C491.128 332.457 490.625 331.898 490.099 331.312L490.094 331.306L490.087 331.299L490.082 331.293C487.649 328.585 484.719 325.324 481.659 321.976C478.014 317.937 474.214 313.785 470.854 310.284C468.14 307.412 465.733 304.999 463.891 303.427C464.218 305.688 464.517 309.39 464.697 312.862C464.822 315.053 464.912 317.209 464.941 318.88C464.951 319.711 464.946 320.438 464.925 321C464.914 321.282 464.899 321.522 464.88 321.721C464.864 321.901 464.821 322.127 464.733 322.316C463.492 324.935 461.739 326.7 459.603 327.692C457.468 328.685 455.033 328.885 452.519 328.529C447.52 327.81 442.266 324.891 438.232 321.23C435.042 318.228 434.823 313.497 435.702 308.997C436.585 304.467 438.473 299.902 440.004 296.891C440.233 296.429 440.704 296.316 441.062 296.429C441.418 296.551 441.739 296.912 441.695 297.421C441.398 300.429 441.316 304.662 442.061 308.287C442.443 310.101 443.038 311.704 443.863 312.906C444.699 314.099 445.741 314.857 447.041 315.087C451.157 315.829 453.596 315.74 455.041 315.112C456.389 314.531 457.004 313.438 457.232 311.592C457.443 309.874 457.199 304.129 455.977 297.614C454.782 291.184 452.65 284.183 449.17 279.502C448.765 278.948 448.483 278.179 448.803 277.579C448.984 277.241 449.307 277.036 449.702 277.033C450.057 277.024 450.4 277.165 450.723 277.374C452.545 278.529 455.204 280.948 458.774 285.501C464.607 292.698 484.185 316.23 495.591 329.071C495.643 329.129 495.757 329.115 495.778 329.038C501.668 314.152 511.345 287.51 514.256 279.466C516.035 274.409 517.732 271.504 519.065 269.92C519.296 269.65 519.594 269.411 519.93 269.318C520.3 269.21 520.694 269.278 520.974 269.511C521.496 269.951 521.503 270.73 521.312 271.349C519.647 276.594 520.117 283.625 521.292 289.981C522.504 296.504 524.395 302.106 525.222 303.712C526.113 305.429 527.091 306.349 528.548 306.613C530.122 306.903 532.423 306.44 535.957 304.803C537.074 304.279 537.774 303.289 538.126 301.916C538.47 300.531 538.449 298.8 538.19 296.903C537.637 293.143 536.123 288.971 534.815 286.092C534.602 285.617 534.788 285.169 535.091 284.96C535.395 284.752 535.891 284.743 536.261 285.121C538.735 287.695 542.066 291.738 544.408 296.051C546.742 300.353 548.181 305.171 546.281 308.916C543.949 313.407 540.281 317.348 536.001 319.049C533.826 319.893 531.491 320.179 529.129 319.673C526.759 319.156 524.433 317.846 522.29 315.634C522.146 315.484 522.034 315.288 521.948 315.137L521.947 315.135L521.924 315.095C521.82 314.908 521.703 314.669 521.59 314.41C521.363 313.882 521.08 313.194 520.781 312.402C520.166 310.797 519.437 308.73 518.728 306.595C517.61 303.239 516.497 299.65 515.964 297.41C514.823 299.346 513.458 302.188 511.992 305.522C510.153 309.609 508.163 314.382 506.256 319.005C504.297 323.701 502.454 328.233 501.062 331.678C500.28 333.575 499.395 335.417 498.469 337.262C498.143 337.902 497.328 338.086 496.748 337.628C494.904 336.207 493.199 334.735 491.604 332.987ZM566.826 377.956C568.457 394.342 565.136 408.087 559.407 408.658C553.677 409.228 547.71 396.408 546.079 380.022C545.736 376.577 545.612 373.249 545.683 370.136C543.669 378.939 543.029 389.773 544.182 401.346C546.96 429.249 559.103 450.884 571.303 449.669C583.503 448.454 591.141 424.849 588.363 396.947C585.585 369.044 573.442 347.409 561.242 348.624C559.61 348.786 558.061 349.349 556.606 350.269C561.246 353.509 565.49 364.537 566.826 377.956ZM443.338 465.137C455.598 465.09 465.451 442.321 465.344 414.28C465.237 386.24 455.212 363.546 442.951 363.593C430.691 363.639 420.838 386.409 420.945 414.449C421.052 442.49 431.077 465.183 443.338 465.137ZM580.668 292.734C580.59 292.327 580.197 292.061 579.79 292.139C579.383 292.218 579.117 292.611 579.195 293.017C580.581 300.217 584.975 305.46 587.445 307.702C587.943 308.155 588.474 308.935 589.006 309.977C589.531 311.006 590.029 312.233 590.48 313.525C591.384 316.111 592.084 318.904 592.445 320.779C593.127 324.327 591.812 327.033 590.85 328.453C590.565 328.874 590.367 329.48 590.217 330.097C590.062 330.736 589.939 331.476 589.843 332.226C589.649 333.726 589.554 335.318 589.525 336.33C589.513 336.744 589.839 337.089 590.253 337.101C590.667 337.113 591.013 336.787 591.025 336.373C591.052 335.398 591.145 333.857 591.33 332.417C591.423 331.697 591.538 331.016 591.675 330.45C591.818 329.861 591.967 329.479 592.092 329.294C593.183 327.683 594.702 324.572 593.918 320.495C593.545 318.557 592.827 315.693 591.896 313.031C591.431 311.699 590.908 310.404 590.342 309.295C589.783 308.2 589.153 307.227 588.454 306.592C586.133 304.485 581.973 299.513 580.668 292.734ZM584.375 285.327C584.778 285.231 585.183 285.48 585.279 285.883C585.847 288.271 586.932 292.044 588.335 295.58C589.036 297.349 589.811 299.043 590.633 300.469C591.462 301.908 592.307 303.02 593.132 303.676C595.507 305.565 597.777 307.805 599.615 309.962C601.442 312.106 602.884 314.218 603.552 315.855C604.524 318.237 607.999 324.317 609.639 327.097C609.849 327.453 609.731 327.913 609.374 328.124C609.018 328.334 608.558 328.216 608.347 327.859C606.728 325.116 603.186 318.928 602.163 316.422C601.585 315.005 600.264 313.036 598.473 310.935C596.694 308.846 594.492 306.674 592.198 304.85C591.155 304.02 590.196 302.717 589.333 301.218C588.463 299.708 587.657 297.942 586.94 296.133C585.506 292.517 584.4 288.673 583.819 286.23C583.723 285.827 583.972 285.423 584.375 285.327ZM598.025 325.399C598.195 324.995 598.372 324.888 598.475 324.854C598.598 324.813 598.818 324.809 599.175 324.968C599.904 325.295 600.82 326.134 601.675 327.251C603.066 329.066 607.086 334.944 608.933 337.674C609.166 338.017 609.632 338.107 609.975 337.875C610.318 337.642 610.408 337.176 610.176 336.833C608.34 334.121 604.29 328.198 602.866 326.338C601.961 325.158 600.86 324.079 599.787 323.599C599.243 323.355 598.615 323.227 598.002 323.43C597.37 323.64 596.924 324.147 596.642 324.818C596.247 325.757 595.743 327.851 595.282 329.999C594.813 332.18 594.369 334.514 594.104 335.999C594.031 336.407 594.302 336.796 594.71 336.869C595.118 336.942 595.507 336.671 595.58 336.263C595.844 334.791 596.284 332.474 596.748 330.314C597.219 328.12 597.696 326.181 598.025 325.399ZM393.669 298.339C394.08 298.398 394.365 298.777 394.306 299.187C393.202 306.931 388.713 316.963 386.621 320.999C385.238 323.665 382.686 325.001 380.952 325.637C379.891 326.025 378.989 326.668 378.507 327.55L374.2 335.426C374.001 335.79 373.545 335.923 373.182 335.724C372.818 335.526 372.685 335.07 372.884 334.707L377.191 326.83C377.903 325.528 379.161 324.695 380.436 324.228C382.028 323.645 384.16 322.485 385.289 320.308C387.364 316.307 391.754 306.459 392.821 298.976C392.88 298.566 393.259 298.281 393.669 298.339ZM400.792 303.056C401.037 302.722 400.964 302.253 400.63 302.008C400.295 301.764 399.826 301.836 399.581 302.171C397.407 305.143 394.407 310.089 392.459 315.299C390.529 320.46 389.544 326.112 391.732 330.331C394.239 335.162 395.156 338.606 395.418 341.12C395.638 343.234 395.401 344.709 395.209 345.905C395.172 346.131 395.138 346.348 395.108 346.556C394.824 348.548 393.613 354.035 393.037 356.555C392.944 356.959 393.197 357.361 393.601 357.454C394.004 357.546 394.407 357.293 394.499 356.89C395.07 354.394 396.298 348.836 396.593 346.768C396.608 346.664 396.624 346.556 396.642 346.443C396.656 346.353 396.671 346.26 396.687 346.164C396.881 344.962 397.152 343.29 396.91 340.965C396.625 338.222 395.635 334.597 393.064 329.64C391.191 326.03 391.956 320.927 393.864 315.824C395.753 310.771 398.678 305.945 400.792 303.056ZM381.389 331.767C381.072 331.836 380.732 332.041 380.413 332.501L375.521 339.571C375.285 339.912 374.818 339.997 374.477 339.761C374.136 339.525 374.051 339.058 374.287 338.717L379.18 331.647C379.677 330.929 380.322 330.465 381.069 330.301C381.808 330.14 382.555 330.292 383.236 330.632C384.578 331.303 385.79 332.763 386.56 334.591C386.905 335.409 387.43 336.384 388.035 337.475C388.144 337.67 388.255 337.869 388.367 338.071C388.875 338.983 389.417 339.953 389.915 340.93C390.524 342.124 391.083 343.357 391.456 344.548C391.826 345.732 392.029 346.93 391.871 348.038L390.604 356.92C390.546 357.33 390.166 357.615 389.756 357.557C389.346 357.498 389.061 357.118 389.119 356.708L390.386 347.826C390.5 347.031 390.362 346.076 390.024 344.995C389.688 343.921 389.171 342.774 388.579 341.612C388.094 340.662 387.57 339.721 387.062 338.81C386.948 338.606 386.835 338.404 386.724 338.203C386.122 337.119 385.559 336.077 385.178 335.173C384.497 333.558 383.489 332.435 382.565 331.974C382.112 331.748 381.716 331.696 381.389 331.767Z" fill="black"/>
<path d="M176.557 495.752C179.826 505.288 181.99 514.751 183.113 523.787C191.769 527.103 200.447 532.839 207.978 540.753C215.59 548.752 220.921 557.812 223.782 566.712C235.887 565.892 247.515 573.214 251.638 585.239C256.563 599.605 248.91 615.245 234.543 620.171C222.792 624.2 210.19 619.814 203.295 610.222C188.704 612.647 170.177 605.475 155.819 590.387C155.335 589.878 154.86 589.365 154.395 588.848C131.531 591.413 103.961 564.598 90.4755 525.265C75.8774 482.687 83.3132 441.564 107.084 433.414C130.855 425.264 161.959 453.174 176.557 495.752Z" fill="black"/>
<path d="M610.377 603.837C601.141 602.085 593.867 595.903 590.336 587.909C631.358 575.445 662.381 558.646 682.457 536.855C693.998 524.33 698.86 507.308 700.017 489.459C701.176 471.566 698.658 452.184 694.786 434.155C692.861 425.192 690.577 416.473 688.205 408.35C708.538 417.508 720.987 452.265 716.758 492.003C714.28 515.287 706.565 535.695 696.213 549.542C692.735 558.42 686.651 567.301 678.261 574.894C665.843 586.133 651.117 592.066 638.352 592.135C632.4 601.006 621.536 605.955 610.377 603.837Z" fill="black"/>
</svg>
